<svg xmlns="http://www.w3.org/2000/svg" width="80" height="80" viewBox="0 0 80 80">
  <g id="Group_437" data-name="Group 437" transform="translate(-202.126 -128.505)">
    <path id="Path_94" data-name="Path 94" d="M242.125,208.505h0a40,40,0,0,1-40-40h0a40,40,0,0,1,40-40h0a40,40,0,0,1,40,40h0A40,40,0,0,1,242.125,208.505Z" fill="#f9c216" opacity="0.1"/>
    <g id="Group_317" data-name="Group 317" transform="translate(220.194 146.573)">
      <path id="Path_95" data-name="Path 95" d="M232.653,141.053c5.856,0,6.549.023,8.864.128a12.152,12.152,0,0,1,4.071.757,7.249,7.249,0,0,1,4.162,4.162,12.15,12.15,0,0,1,.757,4.071c.105,2.314.128,3.008.128,8.864s-.023,6.549-.128,8.862a12.154,12.154,0,0,1-.757,4.073,7.249,7.249,0,0,1-4.162,4.162,12.113,12.113,0,0,1-4.071.755c-2.314.105-3.006.128-8.864.128s-6.549-.023-8.862-.128a12.128,12.128,0,0,1-4.073-.755,7.264,7.264,0,0,1-4.162-4.162,12.114,12.114,0,0,1-.755-4.073c-.105-2.312-.128-3.006-.128-8.862s.023-6.549.128-8.864a12.111,12.111,0,0,1,.755-4.071,7.264,7.264,0,0,1,4.162-4.162,12.167,12.167,0,0,1,4.073-.757c2.312-.105,3.006-.128,8.862-.128m0-3.952c-5.957,0-6.7.027-9.042.132a16.123,16.123,0,0,0-5.324,1.019,11.216,11.216,0,0,0-6.413,6.415,16.059,16.059,0,0,0-1.019,5.324c-.107,2.339-.132,3.086-.132,9.042s.025,6.7.132,9.042a16.059,16.059,0,0,0,1.019,5.324,11.216,11.216,0,0,0,6.413,6.415,16.18,16.18,0,0,0,5.324,1.019c2.339.105,3.086.13,9.042.13s6.7-.025,9.042-.13a16.169,16.169,0,0,0,5.324-1.019,11.227,11.227,0,0,0,6.415-6.415,16.113,16.113,0,0,0,1.019-5.324c.107-2.339.132-3.086.132-9.042s-.025-6.7-.132-9.042a16.113,16.113,0,0,0-1.019-5.324,11.227,11.227,0,0,0-6.415-6.415,16.112,16.112,0,0,0-5.324-1.019c-2.339-.105-3.086-.132-9.042-.132" transform="translate(-210.722 -137.101)" fill="#f9c216"/>
      <path id="Path_96" data-name="Path 96" d="M227.06,142.178a11.262,11.262,0,1,0,11.262,11.262,11.262,11.262,0,0,0-11.262-11.262m0,18.572a7.31,7.31,0,1,1,7.31-7.31,7.31,7.31,0,0,1-7.31,7.31" transform="translate(-205.129 -131.507)" fill="#f9c216"/>
      <path id="Path_97" data-name="Path 97" d="M230.737,143.346a2.632,2.632,0,1,1-2.632-2.632,2.631,2.631,0,0,1,2.632,2.632" transform="translate(-194.467 -133.12)" fill="#f9c216"/>
    </g>
  </g>
</svg>
