<svg xmlns="http://www.w3.org/2000/svg" width="80" height="79.998" viewBox="0 0 80 79.998">
  <g id="Group_435" data-name="Group 435" transform="translate(-35.552 -128.505)">
    <path id="Path_88" data-name="Path 88" d="M75.552,208.5h0a40,40,0,0,1-40-40h0a40,40,0,0,1,40-40h0a40,40,0,0,1,40,40h0A40,40,0,0,1,75.552,208.5Z" transform="translate(0 0)" fill="#f9c216" opacity="0.1"/>
    <path id="Path_89" data-name="Path 89" d="M44.444,170.006a24.756,24.756,0,0,0,13.4,3.928c16.237,0,25.407-13.712,24.856-26.012a17.725,17.725,0,0,0,4.361-4.527,17.44,17.44,0,0,1-5.021,1.377,8.757,8.757,0,0,0,3.844-4.838,17.544,17.544,0,0,1-5.551,2.123,8.751,8.751,0,0,0-14.9,7.976A24.817,24.817,0,0,1,47.412,140.9a8.755,8.755,0,0,0,2.705,11.676,8.716,8.716,0,0,1-3.962-1.1,8.757,8.757,0,0,0,7.014,8.687,8.755,8.755,0,0,1-3.947.147,8.748,8.748,0,0,0,8.168,6.074A17.583,17.583,0,0,1,44.444,170.006Z" transform="translate(9.798 11.89)" fill="#f9c216"/>
  </g>
</svg>
