<svg xmlns="http://www.w3.org/2000/svg" width="202.944" height="25.635" viewBox="0 0 202.944 25.635">
  <g id="Group_1" data-name="Group 1" transform="translate(-1031.335 -227.335)">
    <g id="Logo-Grey" transform="translate(1031.335 227.335)">
      <path id="Shape" d="M1035.579,252.97h-4.244V227.338h12.806a8.581,8.581,0,0,1,8.53,8.571,8.51,8.51,0,0,1-8.53,8.529h-8.562v8.531Zm0-21.344v8.529h8.562a4.264,4.264,0,0,0,0-8.527Z" transform="translate(-1031.335 -227.336)" fill="#fff"/>
      <path id="Shape-2" d="M1072.18,252.97h-4.247V227.338h12.809a8.582,8.582,0,0,1,8.531,8.533,8.624,8.624,0,0,1-5.277,7.907l5.275,9.191h-4.91l-4.943-8.533h-7.239v8.534Zm0-21.346v8.492l8.562.038a4.1,4.1,0,0,0,2.992-1.255,4.153,4.153,0,0,0,1.255-3.028,4.287,4.287,0,0,0-4.248-4.244Z" transform="translate(-1039.219 -227.336)" fill="#fff"/>
      <path id="Shape-3" d="M1150.9,237.643V252.97h-4.25V227.338l12.811,12.817,12.844-12.817V252.97h-4.315V237.643l-8.529,8.569Z" transform="translate(-1056.177 -227.336)" fill="#fff"/>
      <path id="Shape-4" d="M1193.52,252.971h-4.761l12.806-25.633,12.809,25.631h-4.76l-2.139-4.284H1195.7l-2.177,4.285Zm8.045-16.067-3.76,7.532h7.524l-3.766-7.532Z" transform="translate(-1065.249 -227.336)" fill="#fff"/>
      <path id="Shape-5" d="M1238.3,227.337a12.478,12.478,0,0,1,4.965,1,13.163,13.163,0,0,1,4.075,2.769l-3.028,3.028a8.549,8.549,0,0,0-14.587,6.021,8.506,8.506,0,0,0,8.48,8.533h.095a8.352,8.352,0,0,0,6.015-2.475l3.024,2.991a13.1,13.1,0,0,1-4.08,2.77,12.844,12.844,0,0,1-14.05-2.768,12.819,12.819,0,0,1,9.09-21.866Z" transform="translate(-1073.154 -227.335)" fill="#fff"/>
      <path id="Shape-6" d="M1262.76,227.338h21.376v4.287h-8.526V252.97h-4.281V231.625h-8.569Z" transform="translate(-1081.191 -227.336)" fill="#fff"/>
      <path id="Shape-7" d="M1117.349,252.97a12.755,12.755,0,0,1-9.043-21.866,12.494,12.494,0,0,1,4.108-2.824,13.1,13.1,0,0,1,16.829,6.971,13.067,13.067,0,0,1-6.973,16.78A12.73,12.73,0,0,1,1117.349,252.97Zm.017-20.75a7.936,7.936,0,1,0,7.936,7.936h0A7.942,7.942,0,0,0,1117.366,232.219Z" transform="translate(-1047.105 -227.336)" fill="#f9c216"/>
    </g>
  </g>
</svg>
