<svg xmlns="http://www.w3.org/2000/svg" width="28" height="28" viewBox="0 0 28 28">
  <g id="Group_316" data-name="Group 316" transform="translate(-146.391 -128.505)">
    <path id="Rectangle_15" data-name="Rectangle 15" d="M14,0h0A14,14,0,0,1,28,14v0A14,14,0,0,1,14,28h0A14,14,0,0,1,0,14v0A14,14,0,0,1,14,0Z" transform="translate(146.391 128.505)" fill="#fff" opacity="0.1"/>
    <path id="Path_93" data-name="Path 93" d="M161.885,152.958h3.408v-8.534h2.378l.253-2.857h-2.631v-1.627c0-.674.135-.94.787-.94h1.844v-2.965h-2.36c-2.536,0-3.679,1.117-3.679,3.255v2.278h-1.773v2.893h1.773Z" transform="translate(-3.627 -1.99)" fill="#fff"/>
  </g>
</svg>
