<svg xmlns="http://www.w3.org/2000/svg" width="28" height="28" viewBox="0 0 28 28">
  <g id="Group_312" data-name="Group 312" transform="translate(-35.552 -128.505)">
    <path id="Path_88" data-name="Path 88" d="M49.552,156.5h0a14,14,0,0,1-14-14h0a14,14,0,0,1,14-14h0a14,14,0,0,1,14,14h0A14,14,0,0,1,49.552,156.5Z" fill="#fff" opacity="0.1"/>
    <path id="Path_89" data-name="Path 89" d="M44.444,150.044a8.7,8.7,0,0,0,13.391-7.729,6.2,6.2,0,0,0,1.526-1.585,6.1,6.1,0,0,1-1.757.482,3.065,3.065,0,0,0,1.345-1.693,6.14,6.14,0,0,1-1.943.743,3.063,3.063,0,0,0-5.216,2.792,8.686,8.686,0,0,1-6.308-3.2,3.064,3.064,0,0,0,.947,4.086,3.051,3.051,0,0,1-1.387-.383A3.065,3.065,0,0,0,47.5,146.6a3.064,3.064,0,0,1-1.382.051,3.062,3.062,0,0,0,2.859,2.126A6.154,6.154,0,0,1,44.444,150.044Z" transform="translate(-2.351 -2.853)" fill="#fff"/>
  </g>
</svg>
