<svg xmlns="http://www.w3.org/2000/svg" width="28" height="28" viewBox="0 0 28 28">
  <g id="Group_318" data-name="Group 318" transform="translate(-202.126 -128.505)">
    <path id="Path_94" data-name="Path 94" d="M216.126,156.505h0a14,14,0,0,1-14-14h0a14,14,0,0,1,14-14h0a14,14,0,0,1,14,14h0A14,14,0,0,1,216.126,156.505Z" fill="#fff" opacity="0.1"/>
    <g id="Group_317" data-name="Group 317" transform="translate(208.45 134.829)">
      <path id="Path_95" data-name="Path 95" d="M218.4,138.484c2.05,0,2.292.008,3.1.045a4.253,4.253,0,0,1,1.425.265,2.537,2.537,0,0,1,1.457,1.457,4.253,4.253,0,0,1,.265,1.425c.037.81.045,1.053.045,3.1s-.008,2.292-.045,3.1a4.254,4.254,0,0,1-.265,1.426,2.537,2.537,0,0,1-1.457,1.457,4.239,4.239,0,0,1-1.425.264c-.81.037-1.052.045-3.1.045s-2.292-.008-3.1-.045a4.245,4.245,0,0,1-1.426-.264,2.543,2.543,0,0,1-1.457-1.457,4.24,4.24,0,0,1-.264-1.426c-.037-.809-.045-1.052-.045-3.1s.008-2.292.045-3.1a4.238,4.238,0,0,1,.264-1.425,2.543,2.543,0,0,1,1.457-1.457,4.259,4.259,0,0,1,1.426-.265c.809-.037,1.052-.045,3.1-.045m0-1.383c-2.085,0-2.346.01-3.165.046a5.643,5.643,0,0,0-1.863.357,3.925,3.925,0,0,0-2.245,2.245,5.62,5.62,0,0,0-.357,1.863c-.038.819-.046,1.08-.046,3.165s.009,2.346.046,3.165a5.62,5.62,0,0,0,.357,1.863,3.926,3.926,0,0,0,2.245,2.245,5.663,5.663,0,0,0,1.863.357c.819.037,1.08.046,3.165.046s2.346-.009,3.165-.046a5.659,5.659,0,0,0,1.863-.357,3.929,3.929,0,0,0,2.245-2.245,5.639,5.639,0,0,0,.357-1.863c.038-.819.046-1.08.046-3.165s-.009-2.346-.046-3.165a5.639,5.639,0,0,0-.357-1.863,3.929,3.929,0,0,0-2.245-2.245,5.639,5.639,0,0,0-1.863-.357c-.819-.037-1.08-.046-3.165-.046" transform="translate(-210.722 -137.101)" fill="#fff"/>
      <path id="Path_96" data-name="Path 96" d="M219.74,142.178a3.942,3.942,0,1,0,3.942,3.942,3.942,3.942,0,0,0-3.942-3.942m0,6.5a2.559,2.559,0,1,1,2.559-2.559,2.559,2.559,0,0,1-2.559,2.559" transform="translate(-212.064 -138.443)" fill="#fff"/>
      <path id="Path_97" data-name="Path 97" d="M227.316,141.635a.921.921,0,1,1-.921-.921.921.921,0,0,1,.921.921" transform="translate(-214.622 -138.056)" fill="#fff"/>
    </g>
  </g>
</svg>
